<?xml version="1.0" encoding="utf-8"?>
<!-- Generator: Adobe Illustrator 18.0.0, SVG Export Plug-In . SVG Version: 6.00 Build 0)  -->
<!DOCTYPE svg PUBLIC "-//W3C//DTD SVG 1.1//EN" "http://www.w3.org/Graphics/SVG/1.1/DTD/svg11.dtd">
<svg version="1.1" id="Layer_1" xmlns="http://www.w3.org/2000/svg" xmlns:xlink="http://www.w3.org/1999/xlink" x="0px" y="0px"
	 viewBox="0 0 231.5 218" enable-background="new 0 0 231.5 218" xml:space="preserve">
<path fill="#5A9EC1" d="M210.4,73.2c-1.8-6.7-4.8-12.9-8.6-18.4l8.4-8.8l-17.3-16.5l-8.3,8.7c-6.2-4-13.1-6.8-20.6-8.3v-12H140v12
	c-9.4,1.9-18,5.9-25.3,11.6l-0.7-0.6l0,0l-8.4-7.3L90,51.6l9.2,8c-3.8,6.8-6.4,14.4-7.3,22.5l-12.3,0.9l1.8,23.8l12.4-0.9
	c1.9,6.6,4.9,12.7,8.7,18.2l-8.7,9.1l17.3,16.5l8.7-9.1c6.1,3.8,12.9,6.6,20.2,8v12.7h23.9v-12.7c9.2-1.8,17.7-5.8,24.8-11.3
	l9.5,8.3l15.7-18.1l-9.5-8.2c3.9-6.7,6.5-14.3,7.5-22.3l12.4-0.9l-1.8-23.8L210.4,73.2z M152,70.6c10.5,0,19,8.5,19,19
	c0,10.5-8.5,19-19,19c-10.5,0-19-8.5-19-19C133,79.1,141.5,70.6,152,70.6z"/>
<path fill="#5A9EC1" d="M35.6,188.6l-5,5.2l10,9.5l5-5.3c3.5,2.2,7.4,3.8,11.6,4.6v7.3H71v-7.3c5.3-1.1,10.2-3.3,14.3-6.5l5.5,4.8
	l9-10.4l-5.5-4.7c2.2-3.9,3.7-8.2,4.3-12.9l6.9-0.5v0l0.2,0l0-0.5c0,0,0,0,0,0l-1-13.2l-7,0.5c-1.1-3.9-2.8-7.4-5-10.6l4.8-5.1
	l-10-9.5l-4.8,5c-3.6-2.3-7.6-3.9-11.9-4.8v-1.8v-5.1H57.2v6.9c-5.4,1.1-10.4,3.4-14.6,6.7l-5.3-4.6l-9,10.4l5.3,4.6
	c-2.2,3.9-3.7,8.3-4.2,13l-7.1,0.5l1,13.8l7.2-0.5C31.6,182,33.4,185.5,35.6,188.6z M75.1,168.7c0,6.1-4.9,11-11,11
	c-6.1,0-11-4.9-11-11c0-6.1,4.9-11,11-11C70.2,157.7,75.1,162.6,75.1,168.7z"/>
<g>
	<g>
		<path fill="#0082C8" d="M199.8,84.1l12.4-0.9l-1.8-23.8l-12.2,0.9c-1.8-6.7-4.8-12.9-8.6-18.4l8.4-8.8l-17.3-16.5l-8.3,8.7
			c-6.2-3.9-13.1-6.8-20.6-8.3V5h-23.9v12c-9.4,1.9-18,5.9-25.3,11.6l-9.1-7.9L77.8,38.7l9.2,8c-3.8,6.8-6.4,14.4-7.3,22.5
			l-12.3,0.9L69.1,94L81.5,93c1.9,6.6,4.9,12.7,8.7,18.2l-8.7,9.1l17.3,16.5l8.7-9.1c6.1,3.8,12.9,6.6,20.2,8v12.7h23.9v-12.7
			c9.2-1.8,17.7-5.8,24.8-11.3l9.5,8.3l15.7-18.1l-9.5-8.2C196.1,99.7,198.7,92.1,199.8,84.1z M139.7,95.7c-10.5,0-19-8.5-19-19
			s8.5-19,19-19c10.5,0,19,8.5,19,19S150.2,95.7,139.7,95.7z"/>
		<path fill="none" stroke="#21409A" stroke-width="3.6133" stroke-miterlimit="10" d="M139.7,126.4"/>
		<path fill="#D1D3D4" d="M199.8,84.1l12.4-0.9l-1.8-23.8l-4.2,0.3c-3.9,26.7-26.8,47.2-54.6,47.2c-30.5,0-55.2-24.7-55.2-55.2
			c0-8.5,1.9-16.5,5.4-23.7l-8.4-7.3L77.8,38.7l9.2,8c-3.8,6.8-6.4,14.4-7.3,22.5l-12.3,0.9L69.1,94L81.5,93
			c1.9,6.6,4.9,12.7,8.7,18.2l-8.7,9.1l17.3,16.5l8.7-9.1c6.1,3.8,12.9,6.6,20.2,8v12.7h23.9v-12.7c9.2-1.8,17.7-5.8,24.8-11.3
			l9.5,8.3l15.7-18.1l-9.5-8.2C196.1,99.7,198.7,92.1,199.8,84.1z"/>
		<path fill="#00589C" d="M139.7,38.6c-21,0-38.1,17-38.1,38.1c0,21,17,38.1,38.1,38.1c21,0,38.1-17,38.1-38.1
			C177.8,55.6,160.8,38.6,139.7,38.6z M139.7,95.7c-10.5,0-19-8.5-19-19s8.5-19,19-19c10.5,0,19,8.5,19,19S150.2,95.7,139.7,95.7z"
			/>
	</g>
	<g>
		<path fill="#3E6EA4" d="M86.6,160.1l7.1-0.5l-1-13.8l-7,0.5c-1.1-3.9-2.8-7.4-5-10.6l4.8-5.1l-10-9.5l-4.8,5
			c-3.6-2.3-7.6-3.9-11.9-4.8v-6.9H45v6.9c-5.4,1.1-10.4,3.4-14.6,6.7l-5.3-4.6l-9,10.4l5.3,4.6c-2.2,3.9-3.7,8.3-4.2,13l-7.1,0.5
			l1,13.8l7.2-0.5c1.1,3.8,2.8,7.3,5,10.5l-5,5.2l10,9.5l5-5.3c3.5,2.2,7.4,3.8,11.6,4.6v7.3h13.8v-7.3c5.3-1.1,10.2-3.3,14.3-6.5
			l5.5,4.8l9-10.4l-5.5-4.7C84.5,169,86,164.7,86.6,160.1z M51.9,166.7c-6.1,0-11-4.9-11-11c0-6.1,4.9-11,11-11s11,4.9,11,11
			C62.9,161.8,58,166.7,51.9,166.7z"/>
		<path fill="none" d="M86.6,160.1l7.1-0.5l-1-13.8l-7,0.5c-1.1-3.9-2.8-7.4-5-10.6l4.8-5.1l-10-9.5l-4.8,5
			c-3.6-2.3-7.6-3.9-11.9-4.8v-6.9H45v6.9c-5.4,1.1-10.4,3.4-14.6,6.7l-5.3-4.6l-9,10.4l5.3,4.6c-2.2,3.9-3.7,8.3-4.2,13l-7.1,0.5
			l1,13.8l7.2-0.5c1.1,3.8,2.8,7.3,5,10.5l-5,5.2l10,9.5l5-5.3c3.5,2.2,7.4,3.8,11.6,4.6v7.3h13.8v-7.3c5.3-1.1,10.2-3.3,14.3-6.5
			l5.5,4.8l9-10.4l-5.5-4.7C84.5,169,86,164.7,86.6,160.1z M51.9,166.7c-6.1,0-11-4.9-11-11c0-6.1,4.9-11,11-11s11,4.9,11,11
			C62.9,161.8,58,166.7,51.9,166.7z"/>
		<g>
			<path fill="#D1D3D4" d="M64.7,179.9c-16.8,0-30.5-13.6-30.5-30.5c0-14.8,10.6-27.2,24.6-29.9v-5.1H45v6.9
				c-5.4,1.1-10.4,3.4-14.6,6.7l-5.3-4.6l-9,10.4l5.3,4.6c-2.2,3.9-3.7,8.3-4.2,13l-7.1,0.5l1,13.8l7.2-0.5c1.1,3.8,2.8,7.3,5,10.5
				l-5,5.2l10,9.5l5-5.3c3.5,2.2,7.4,3.8,11.6,4.6v7.3h13.8v-7.3c5.3-1.1,10.2-3.3,14.3-6.5l5.5,4.8l9-10.4l-4.6-3.9
				C78,177.6,71.6,179.9,64.7,179.9z"/>
			<path fill="#D1D3D4" d="M93.5,159.5l0.2,0l0-0.5C93.6,159.2,93.5,159.4,93.5,159.5z"/>
		</g>
	</g>
</g>
</svg>
