<svg id="Capa_1" enable-background="new 0 0 512 512" height="512" viewBox="0 0 512 512" width="512" xmlns="http://www.w3.org/2000/svg"><g><g><path d="m10 123.125c0-28.264 0-47.125 0-47.125h372v300c0 33.137 26.863 60 60 60-.024 0-372 0-372 0-33.137 0-60-26.863-60-60 0 0 0-168.417 0-252.875z" fill="#cef"/><path d="m472 136-90 1v239c0 33.137 26.863 60 60 60s60-26.863 60-60v-210c0-16.569-13.431-30-30-30z" fill="#fff"/></g><g><path d="m472 126h-80v-50c0-5.523-4.478-10-10-10h-372c-5.522 0-10 4.477-10 10v300c0 38.598 31.402 70 70 70h372c38.598 0 70-31.402 70-70v-210c0-22.056-17.944-40-40-40zm-34.619 20c-3.415 5.888-5.381 12.717-5.381 20v140h-40v-160zm-367.381 280c-27.57 0-50-22.43-50-50v-290h352v290c0 19.567 8.07 37.285 21.057 50zm422-50c0 27.57-22.43 50-50 50s-50-22.43-50-50v-50h50c5.522 0 10-4.477 10-10v-150c0-11.028 8.972-20 20-20s20 8.972 20 20z" fill="#80aaff"/><path d="m322 126h-252c-5.522 0-10 4.477-10 10v60c0 5.523 4.478 10 10 10h252c5.522 0 10-4.477 10-10v-60c0-5.523-4.478-10-10-10z" fill="#fff"/><g fill="#80aaff"><path d="m136 246h-66c-5.522 0-10 4.477-10 10s4.478 10 10 10h66c5.522 0 10-4.477 10-10s-4.478-10-10-10z"/><path d="m136 306h-66c-5.522 0-10 4.477-10 10s4.478 10 10 10h66c5.522 0 10-4.477 10-10s-4.478-10-10-10z"/><path d="m136 366h-66c-5.522 0-10 4.477-10 10s4.478 10 10 10h66c5.522 0 10-4.477 10-10s-4.478-10-10-10z"/><path d="m322 366h-126c-5.522 0-10 4.477-10 10s4.478 10 10 10h126c5.522 0 10-4.477 10-10s-4.478-10-10-10z"/><path d="m322 306h-126c-5.522 0-10 4.477-10 10s4.478 10 10 10h126c5.522 0 10-4.477 10-10s-4.478-10-10-10z"/><path d="m322 246h-126c-5.522 0-10 4.477-10 10s4.478 10 10 10h126c5.522 0 10-4.477 10-10s-4.478-10-10-10z"/></g></g></g></svg>