<?xml version="1.0" encoding="iso-8859-1"?>
<!-- Generator: Adobe Illustrator 19.0.0, SVG Export Plug-In . SVG Version: 6.00 Build 0)  -->
<svg version="1.1" id="Capa_1" xmlns="http://www.w3.org/2000/svg" xmlns:xlink="http://www.w3.org/1999/xlink" x="0px" y="0px"
	 viewBox="0 0 512 512" style="enable-background:new 0 0 512 512;" xml:space="preserve">
<path style="fill:#DCF4FF;" d="M467,431H45c-24.813,0-45-20.187-45-45V81h437L467,431z"/>
<path style="fill:#CCEFFF;" d="M211,81v305c0,24.813,20.187,45,45,45h211L437,81H211z"/>
<path style="fill:#ACE3FC;" d="M467,431c-24.813,0-45-20.123-45-44.858V81h90v305.142C512,410.877,491.813,431,467,431z"/>
<path style="fill:#7D8AFF;" d="M382,242H70v-90h312V242z"/>
<path style="fill:#6E76E5;" d="M382,362h-90v-90h90V362z"/>
<g>
	<rect x="70" y="272" style="fill:#7D8AFF;" width="192" height="30"/>
	<rect x="70" y="332" style="fill:#7D8AFF;" width="192" height="30"/>
</g>
<path style="fill:#86D6F2;" d="M467,401c8.271,0,15-6.665,15-14.858V81h-30v305.142C452,394.335,458.729,401,467,401z"/>
<g>
	<path style="fill:#6E76E5;" d="M382,242H211v-90h171V242z"/>
	<rect x="211" y="272" style="fill:#6E76E5;" width="51" height="30"/>
	<rect x="211" y="332" style="fill:#6E76E5;" width="51" height="30"/>
</g>
<g>
</g>
<g>
</g>
<g>
</g>
<g>
</g>
<g>
</g>
<g>
</g>
<g>
</g>
<g>
</g>
<g>
</g>
<g>
</g>
<g>
</g>
<g>
</g>
<g>
</g>
<g>
</g>
<g>
</g>
</svg>
