<svg height="512pt" viewBox="0 0 512 512" width="512pt" xmlns="http://www.w3.org/2000/svg"><path d="m49.070312 272.605469v131.265625h30v-101.265625h176.929688v-30zm0 0" fill="#e1ebf0"/><path d="m256 272.605469v30h176.929688v101.265625h30v-131.265625zm0 0" fill="#b4d2d7"/><path d="m241 171.339844h30v232.53125h-30zm0 0" fill="#b4d2d7"/><path d="m0 383.855469h128.144531v128.144531h-128.144531zm0 0" fill="#09607d"/><path d="m383.855469 383.855469h128.144531v128.144531h-128.144531zm0 0" fill="#07485e"/><path d="m320.070312 512v-128.144531h-64.070312l-20.015625 64.074219 20.015625 64.070312zm0 0" fill="#07485e"/><path d="m191.929688 383.855469h64.070312v128.144531h-64.070312zm0 0" fill="#09607d"/><path d="m415.75 0h-159.75l-20.015625 95.679688 20.015625 95.675781h159.75zm0 0" fill="#efe2dd"/><path d="m96.25 0h159.75v191.355469h-159.75zm0 0" fill="#fff5f5"/><path d="m367.910156 48.785156h-111.910156l-10.007812 15 10.007812 15h111.910156zm0 0" fill="#07485e"/><path d="m367.910156 112.570312h-111.910156l-10.007812 15 10.007812 15h111.910156zm0 0" fill="#07485e"/><g fill="#09607d"><path d="m144.089844 48.785156h111.910156v30h-111.910156zm0 0"/><path d="m144.089844 112.570312h111.910156v30h-111.910156zm0 0"/></g></svg>