<svg xmlns="http://www.w3.org/2000/svg" xmlns:xlink="http://www.w3.org/1999/xlink" viewBox="0 0 64 64"><defs><style>.cls-1{fill:url(#linear-gradient);}.cls-2{fill:url(#linear-gradient-2);}.cls-3{fill:url(#linear-gradient-3);}</style><linearGradient id="linear-gradient" x1="2.97" y1="32" x2="61.01" y2="32" gradientUnits="userSpaceOnUse"><stop offset="0" stop-color="#d7d8d2"/><stop offset="0.07" stop-color="#d0d1cb"/><stop offset="0.7" stop-color="#99988d"/><stop offset="1" stop-color="#848275"/></linearGradient><linearGradient id="linear-gradient-2" x1="34.19" y1="16.43" x2="60.96" y2="16.43" xlink:href="#linear-gradient"/><linearGradient id="linear-gradient-3" x1="3.09" y1="47.55" x2="29.82" y2="47.55" xlink:href="#linear-gradient"/></defs><g id="Layer_47" data-name="Layer 47"><path class="cls-1" d="M58.24,44.82a9.49,9.49,0,0,0-9.36-2.37L21.55,15.12C24.25,5.75,12.7-1.11,5.76,5.76s0,18.52,9.38,15.81L42.45,48.88C40.57,54.69,45.39,61.2,51.53,61,59.88,61.1,64.2,50.67,58.24,44.82ZM16.53,14.08l-2.45,2.45a1,1,0,0,1-.71.3c.05.09-3.55-.94-3.61-.94a1,1,0,0,1-.71-.7l-.9-3.36a1,1,0,0,1,.26-1l2.45-2.45a1,1,0,0,1,1-.26l3.36.9a1,1,0,0,1,.7.71l.9,3.35A1,1,0,0,1,16.53,14.08ZM56.29,53.32l-3,3a1,1,0,0,1-.7.29,1.09,1.09,0,0,1-.26,0L48.3,55.46a1,1,0,0,1-.7-.71l-1.09-4a1,1,0,0,1,.26-1l3-3a1,1,0,0,1,1-.26l4,1.09a1,1,0,0,1,.71.7l1.09,4.06A1,1,0,0,1,56.29,53.32Z"/><path class="cls-2" d="M60.75,11a1,1,0,0,0-1.69-.51l-4,4-4.36-1.17L49.49,9l4-4a1.06,1.06,0,0,0,.27-.81A1,1,0,0,0,53,3.25C45.86,1.71,39.45,9,41.84,15.86l-7.36,7.37a1,1,0,0,0,0,1.42l4.88,4.88a1,1,0,0,0,1.42,0l7.34-7.36C55,24.61,62.33,18.09,60.75,11Z"/><path class="cls-3" d="M24.65,34.48a1,1,0,0,0-1.42,0l-7.89,7.89C6,39.56-1.06,51.09,5.87,58.13S24.48,58,21.64,48.66l7.89-7.88a1,1,0,0,0,0-1.42Zm-7,16.11-1.1,4.11a1,1,0,0,1-.71.71l-4.11,1.1a1,1,0,0,1-1-.26l-3-3a1,1,0,0,1-.26-1l1.1-4.11a1,1,0,0,1,.71-.71l4.11-1.1a1,1,0,0,1,1,.26l3,3A1,1,0,0,1,17.65,50.59Z"/></g></svg>