<svg id="Layer_1" enable-background="new 0 0 512.739 512.739" height="512" viewBox="0 0 512.739 512.739" width="512" xmlns="http://www.w3.org/2000/svg"><g><g><g><g><path d="m457.925.589h-163.661v12.494h-112.288v-12.494h-162.583c-10.71 0-19.393 8.725-19.393 19.489v441.05c0 10.165 8.2 18.406 18.315 18.406h429.782c15.543 0 28.144-12.663 28.144-28.283v-432.256c0-10.166-8.2-18.406-18.316-18.406z" fill="#fdbf00"/></g></g></g><path d="m450.806.589h-156.542v12.494h-55.953v102.124h-.191v364.328h220.73c9.605 0 17.391-7.83 17.391-17.489v-441.893c-1.09-2.714-5.306-19.564-25.435-19.564z" fill="#ff9100"/><path d="m456.851.589h-162.587v12.494h-112.288v-12.494h-164.107c-9.869 0-17.869 8.045-17.869 17.97v96.647h476.241v-95.117c0-10.77-8.682-19.5-19.39-19.5z" fill="#ff9100"/><path d="m457.977.589h-163.713v12.494h-56.144v102.124h238.12v-96.25c.001-10.145-8.176-18.368-18.263-18.368z" fill="#ff641a"/><path d="m191.63 427.093h-146.367c-5.513 0-9.982-4.469-9.982-9.982v-80.071c0-5.513 4.469-9.982 9.982-9.982h146.367c5.513 0 9.982 4.469 9.982 9.982v80.071c.001 5.512-4.469 9.982-9.982 9.982z" fill="#ffda2d"/><path d="m287.676 194.978h-99.111c-3.639 0-6.588-2.95-6.588-6.588v-187.801h112.288v187.801c-.001 3.638-2.95 6.588-6.589 6.588z" fill="#ffe470"/><path d="m238.12.993v193.581c0 .223.18.404.402.404h50.053c3.142 0 5.689-2.56 5.689-5.717v-188.268c0-.223-.18-.404-.402-.404h-55.34c-.222 0-.402.181-.402.404z" fill="#ffda2d"/><g><g><g><path d="m50.839 291.392h-.509c-8.438 0-15.279-6.874-15.279-15.354s6.841-15.354 15.279-15.354h.509c8.438 0 15.279 6.874 15.279 15.354 0 8.479-6.841 15.354-15.279 15.354z" fill="#ff9100"/></g><g><path d="m141.721 291.392h-1.108c-8.438 0-15.279-6.874-15.279-15.354s6.841-15.354 15.279-15.354h1.108c8.438 0 15.279 6.874 15.279 15.354 0 8.479-6.841 15.354-15.279 15.354zm-45.441 0h-1.108c-8.438 0-15.279-6.874-15.279-15.354s6.841-15.354 15.279-15.354h1.108c8.438 0 15.279 6.874 15.279 15.354-.001 8.479-6.841 15.354-15.279 15.354z" fill="#ff9100"/></g><g><path d="m186.564 291.392h-.509c-8.438 0-15.279-6.874-15.279-15.354s6.841-15.354 15.279-15.354h.509c8.438 0 15.279 6.874 15.279 15.354-.001 8.479-6.841 15.354-15.279 15.354z" fill="#ff9100"/></g></g></g><circle cx="409.124" cy="408.535" fill="#ff4a4a" r="103.615"/><path d="m409.133 304.92v207.23c57.221-.005 103.606-46.393 103.606-103.615s-46.385-103.61-103.606-103.615z" fill="#e20059"/><path d="m430.975 408.535 26.561-26.561c6.035-6.034 6.035-15.818 0-21.852-6.034-6.034-15.818-6.034-21.852 0l-26.561 26.561-26.561-26.561c-6.034-6.034-15.818-6.034-21.852 0-6.035 6.034-6.035 15.818 0 21.852l26.561 26.561-26.561 26.561c-6.035 6.034-6.035 15.818 0 21.852 3.017 3.017 6.971 4.526 10.926 4.526 3.954 0 7.909-1.509 10.926-4.526l26.561-26.561 26.561 26.561c3.017 3.017 6.971 4.526 10.926 4.526 3.954 0 7.909-1.509 10.926-4.526 6.035-6.034 6.035-15.818 0-21.852z" fill="#fff"/><path d="m457.536 360.122c-6.034-6.034-15.818-6.034-21.852 0l-26.551 26.551v43.722l26.551 26.551c3.017 3.017 6.971 4.526 10.926 4.526 3.954 0 7.909-1.509 10.926-4.526 6.035-6.034 6.035-15.818 0-21.852l-26.561-26.561 26.561-26.561c6.035-6.032 6.035-15.816 0-21.85z" fill="#e6ffff"/></g></svg>